<svg xmlns="http://www.w3.org/2000/svg" width="880" height="320" viewBox="0 0 880 320" font-family="-apple-system,Segoe UI,Hiragino Sans,Noto Sans JP,Yu Gothic,sans-serif">
<rect width="880" height="320" rx="8" fill="#ffffff"/>
<text x="24" y="38" font-size="20" font-weight="700" fill="#1f2328">直近30日のアクセスは「直接アクセス」からが最多（54%）</text>
<text x="24" y="64" font-size="14" fill="#59636e">訪問（セッション）ごとに、どこから来たかを数えた割合</text>
<text x="136" y="109" font-size="15" text-anchor="end" fill="#1f2328">直接アクセス</text>
<rect x="150" y="92" width="640" height="26" rx="4" fill="#e5e7eb" opacity="0.5"/>
<rect x="150" y="92" width="342.9" height="26" rx="4" fill="#2a78d6"><title>直接アクセス: 54%</title></rect>
<text x="802" y="110" font-size="15" font-weight="700" fill="#1f2328">54%</text>
<text x="136" y="153" font-size="15" text-anchor="end" fill="#1f2328">リンク経由</text>
<rect x="150" y="136" width="640" height="26" rx="4" fill="#e5e7eb" opacity="0.5"/>
<rect x="150" y="136" width="279.4" height="26" rx="4" fill="#eda100"><title>リンク経由: 44%</title></rect>
<text x="802" y="154" font-size="15" font-weight="700" fill="#1f2328">44%</text>
<text x="136" y="197" font-size="15" text-anchor="end" fill="#1f2328">検索</text>
<rect x="150" y="180" width="640" height="26" rx="4" fill="#e5e7eb" opacity="0.5"/>
<rect x="150" y="180" width="15.2" height="26" rx="4" fill="#eb6834"><title>検索: 2%</title></rect>
<text x="802" y="198" font-size="15" font-weight="700" fill="#1f2328">2%</text>
<text x="136" y="241" font-size="15" text-anchor="end" fill="#1f2328">その他</text>
<rect x="150" y="224" width="640" height="26" rx="4" fill="#e5e7eb" opacity="0.5"/>
<rect x="150" y="224" width="4.0" height="26" rx="4" fill="#e87ba4"><title>その他: 1%未満</title></rect>
<text x="802" y="242" font-size="15" font-weight="700" fill="#1f2328">1%未満</text>
<text x="136" y="285" font-size="15" text-anchor="end" fill="#1f2328">SNS</text>
<rect x="150" y="268" width="640" height="26" rx="4" fill="#e5e7eb" opacity="0.5"/>
<text x="802" y="286" font-size="15" font-weight="700" fill="#1f2328">0%</text>
</svg>
